<svg width="250" height="30" viewBox="0 0 250 30" fill="none" xmlns="http://www.w3.org/2000/svg">
<path d="M48.08 22.14C47.1467 22.14 46.3067 21.98 45.56 21.66C44.8133 21.3267 44.2267 20.86 43.8 20.26C43.3733 19.66 43.16 18.96 43.16 18.16H45.6C45.6533 18.76 45.8867 19.2533 46.3 19.64C46.7267 20.0267 47.32 20.22 48.08 20.22C48.8667 20.22 49.48 20.0333 49.92 19.66C50.36 19.2733 50.58 18.78 50.58 18.18C50.58 17.7133 50.44 17.3333 50.16 17.04C49.8933 16.7467 49.5533 16.52 49.14 16.36C48.74 16.2 48.18 16.0267 47.46 15.84C46.5533 15.6 45.8133 15.36 45.24 15.12C44.68 14.8667 44.2 14.48 43.8 13.96C43.4 13.44 43.2 12.7467 43.2 11.88C43.2 11.08 43.4 10.38 43.8 9.78C44.2 9.18 44.76 8.72 45.48 8.4C46.2 8.08 47.0333 7.92 47.98 7.92C49.3267 7.92 50.4267 8.26 51.28 8.94C52.1467 9.60667 52.6267 10.5267 52.72 11.7H50.2C50.16 11.1933 49.92 10.76 49.48 10.4C49.04 10.04 48.46 9.86 47.74 9.86C47.0867 9.86 46.5533 10.0267 46.14 10.36C45.7267 10.6933 45.52 11.1733 45.52 11.8C45.52 12.2267 45.6467 12.58 45.9 12.86C46.1667 13.1267 46.5 13.34 46.9 13.5C47.3 13.66 47.8467 13.8333 48.54 14.02C49.46 14.2733 50.2067 14.5267 50.78 14.78C51.3667 15.0333 51.86 15.4267 52.26 15.96C52.6733 16.48 52.88 17.18 52.88 18.06C52.88 18.7667 52.6867 19.4333 52.3 20.06C51.9267 20.6867 51.3733 21.1933 50.64 21.58C49.92 21.9533 49.0667 22.14 48.08 22.14ZM57.1303 9.52C56.717 9.52 56.3703 9.38 56.0903 9.1C55.8103 8.82 55.6703 8.47333 55.6703 8.06C55.6703 7.64667 55.8103 7.3 56.0903 7.02C56.3703 6.74 56.717 6.6 57.1303 6.6C57.5303 6.6 57.8703 6.74 58.1503 7.02C58.4303 7.3 58.5703 7.64667 58.5703 8.06C58.5703 8.47333 58.4303 8.82 58.1503 9.1C57.8703 9.38 57.5303 9.52 57.1303 9.52ZM58.2503 10.98V22H55.9703V10.98H58.2503ZM66.0837 10.8C66.9371 10.8 67.6904 10.9733 68.3437 11.32C69.0104 11.6533 69.5304 12.0733 69.9037 12.58V10.98H72.2038V22.18C72.2038 23.1933 71.9904 24.0933 71.5638 24.88C71.1371 25.68 70.5171 26.3067 69.7037 26.76C68.9037 27.2133 67.9437 27.44 66.8237 27.44C65.3304 27.44 64.0904 27.0867 63.1037 26.38C62.1171 25.6867 61.5571 24.74 61.4237 23.54H63.6837C63.8571 24.1133 64.2237 24.5733 64.7837 24.92C65.3571 25.28 66.0371 25.46 66.8237 25.46C67.7437 25.46 68.4837 25.18 69.0437 24.62C69.6171 24.06 69.9037 23.2467 69.9037 22.18V20.34C69.5171 20.86 68.9904 21.3 68.3237 21.66C67.6704 22.0067 66.9237 22.18 66.0837 22.18C65.1237 22.18 64.2437 21.94 63.4437 21.46C62.6571 20.9667 62.0304 20.2867 61.5637 19.42C61.1104 18.54 60.8837 17.5467 60.8837 16.44C60.8837 15.3333 61.1104 14.3533 61.5637 13.5C62.0304 12.6467 62.6571 11.9867 63.4437 11.52C64.2437 11.04 65.1237 10.8 66.0837 10.8ZM69.9037 16.48C69.9037 15.72 69.7437 15.06 69.4237 14.5C69.1171 13.94 68.7104 13.5133 68.2037 13.22C67.6971 12.9267 67.1504 12.78 66.5637 12.78C65.9771 12.78 65.4304 12.9267 64.9237 13.22C64.4171 13.5 64.0037 13.92 63.6837 14.48C63.3771 15.0267 63.2237 15.68 63.2237 16.44C63.2237 17.2 63.3771 17.8667 63.6837 18.44C64.0037 19.0133 64.4171 19.4533 64.9237 19.76C65.4437 20.0533 65.9904 20.2 66.5637 20.2C67.1504 20.2 67.6971 20.0533 68.2037 19.76C68.7104 19.4667 69.1171 19.04 69.4237 18.48C69.7437 17.9067 69.9037 17.24 69.9037 16.48ZM81.1584 10.8C82.0251 10.8 82.7984 10.98 83.4784 11.34C84.1718 11.7 84.7118 12.2333 85.0984 12.94C85.4851 13.6467 85.6784 14.5 85.6784 15.5V22H83.4184V15.84C83.4184 14.8533 83.1718 14.1 82.6784 13.58C82.1851 13.0467 81.5118 12.78 80.6584 12.78C79.8051 12.78 79.1251 13.0467 78.6184 13.58C78.1251 14.1 77.8784 14.8533 77.8784 15.84V22H75.5984V10.98H77.8784V12.24C78.2518 11.7867 78.7251 11.4333 79.2984 11.18C79.8851 10.9267 80.5051 10.8 81.1584 10.8ZM104.562 10.98V22H102.282V20.7C101.922 21.1533 101.449 21.5133 100.862 21.78C100.289 22.0333 99.6754 22.16 99.022 22.16C98.1554 22.16 97.3754 21.98 96.682 21.62C96.002 21.26 95.462 20.7267 95.062 20.02C94.6754 19.3133 94.482 18.46 94.482 17.46V10.98H96.742V17.12C96.742 18.1067 96.9887 18.8667 97.482 19.4C97.9754 19.92 98.6487 20.18 99.502 20.18C100.355 20.18 101.029 19.92 101.522 19.4C102.029 18.8667 102.282 18.1067 102.282 17.12V10.98H104.562ZM110.25 12.6C110.637 12.0933 111.164 11.6667 111.83 11.32C112.497 10.9733 113.25 10.8 114.09 10.8C115.05 10.8 115.924 11.04 116.71 11.52C117.51 11.9867 118.137 12.6467 118.59 13.5C119.044 14.3533 119.27 15.3333 119.27 16.44C119.27 17.5467 119.044 18.54 118.59 19.42C118.137 20.2867 117.51 20.9667 116.71 21.46C115.924 21.94 115.05 22.18 114.09 22.18C113.25 22.18 112.504 22.0133 111.85 21.68C111.197 21.3333 110.664 20.9067 110.25 20.4V27.24H107.97V10.98H110.25V12.6ZM116.95 16.44C116.95 15.68 116.79 15.0267 116.47 14.48C116.164 13.92 115.75 13.5 115.23 13.22C114.724 12.9267 114.177 12.78 113.59 12.78C113.017 12.78 112.47 12.9267 111.95 13.22C111.444 13.5133 111.03 13.94 110.71 14.5C110.404 15.06 110.25 15.72 110.25 16.48C110.25 17.24 110.404 17.9067 110.71 18.48C111.03 19.04 111.444 19.4667 111.95 19.76C112.47 20.0533 113.017 20.2 113.59 20.2C114.177 20.2 114.724 20.0533 115.23 19.76C115.75 19.4533 116.164 19.0133 116.47 18.44C116.79 17.8667 116.95 17.2 116.95 16.44ZM142.32 10.98L138.9 22H136.5L134.28 13.86L132.06 22H129.66L126.22 10.98H128.54L130.84 19.84L133.18 10.98H135.56L137.8 19.8L140.08 10.98H142.32ZM145.584 9.52C145.171 9.52 144.824 9.38 144.544 9.1C144.264 8.82 144.124 8.47333 144.124 8.06C144.124 7.64667 144.264 7.3 144.544 7.02C144.824 6.74 145.171 6.6 145.584 6.6C145.984 6.6 146.324 6.74 146.604 7.02C146.884 7.3 147.024 7.64667 147.024 8.06C147.024 8.47333 146.884 8.82 146.604 9.1C146.324 9.38 145.984 9.52 145.584 9.52ZM146.704 10.98V22H144.424V10.98H146.704ZM152.758 12.84V18.94C152.758 19.3533 152.851 19.6533 153.038 19.84C153.238 20.0133 153.571 20.1 154.038 20.1H155.438V22H153.638C152.611 22 151.824 21.76 151.278 21.28C150.731 20.8 150.458 20.02 150.458 18.94V12.84H149.158V10.98H150.458V8.24H152.758V10.98H155.438V12.84H152.758ZM163.639 10.8C164.479 10.8 165.226 10.98 165.879 11.34C166.546 11.7 167.066 12.2333 167.439 12.94C167.826 13.6467 168.019 14.5 168.019 15.5V22H165.759V15.84C165.759 14.8533 165.512 14.1 165.019 13.58C164.526 13.0467 163.852 12.78 162.999 12.78C162.146 12.78 161.466 13.0467 160.959 13.58C160.466 14.1 160.219 14.8533 160.219 15.84V22H157.939V7.2H160.219V12.26C160.606 11.7933 161.092 11.4333 161.679 11.18C162.279 10.9267 162.932 10.8 163.639 10.8ZM186.983 12.1C186.623 11.4067 186.123 10.8867 185.483 10.54C184.843 10.18 184.103 10 183.263 10C182.343 10 181.523 10.2067 180.803 10.62C180.083 11.0333 179.516 11.62 179.103 12.38C178.703 13.14 178.503 14.02 178.503 15.02C178.503 16.02 178.703 16.9067 179.103 17.68C179.516 18.44 180.083 19.0267 180.803 19.44C181.523 19.8533 182.343 20.06 183.263 20.06C184.503 20.06 185.509 19.7133 186.283 19.02C187.056 18.3267 187.529 17.3867 187.703 16.2H182.483V14.38H190.143V16.16C189.996 17.24 189.609 18.2333 188.983 19.14C188.369 20.0467 187.563 20.7733 186.563 21.32C185.576 21.8533 184.476 22.12 183.263 22.12C181.956 22.12 180.763 21.82 179.683 21.22C178.603 20.6067 177.743 19.76 177.103 18.68C176.476 17.6 176.163 16.38 176.163 15.02C176.163 13.66 176.476 12.44 177.103 11.36C177.743 10.28 178.603 9.44 179.683 8.84C180.776 8.22667 181.969 7.92 183.263 7.92C184.743 7.92 186.056 8.28667 187.203 9.02C188.363 9.74 189.203 10.7667 189.723 12.1H186.983ZM197.571 22.18C196.531 22.18 195.591 21.9467 194.751 21.48C193.911 21 193.251 20.3333 192.771 19.48C192.291 18.6133 192.051 17.6133 192.051 16.48C192.051 15.36 192.298 14.3667 192.791 13.5C193.285 12.6333 193.958 11.9667 194.811 11.5C195.665 11.0333 196.618 10.8 197.671 10.8C198.725 10.8 199.678 11.0333 200.531 11.5C201.385 11.9667 202.058 12.6333 202.551 13.5C203.045 14.3667 203.291 15.36 203.291 16.48C203.291 17.6 203.038 18.5933 202.531 19.46C202.025 20.3267 201.331 21 200.451 21.48C199.585 21.9467 198.625 22.18 197.571 22.18ZM197.571 20.2C198.158 20.2 198.705 20.06 199.211 19.78C199.731 19.5 200.151 19.08 200.471 18.52C200.791 17.96 200.951 17.28 200.951 16.48C200.951 15.68 200.798 15.0067 200.491 14.46C200.185 13.9 199.778 13.48 199.271 13.2C198.765 12.92 198.218 12.78 197.631 12.78C197.045 12.78 196.498 12.92 195.991 13.2C195.498 13.48 195.105 13.9 194.811 14.46C194.518 15.0067 194.371 15.68 194.371 16.48C194.371 17.6667 194.671 18.5867 195.271 19.24C195.885 19.88 196.651 20.2 197.571 20.2ZM210.725 22.18C209.685 22.18 208.745 21.9467 207.905 21.48C207.065 21 206.405 20.3333 205.925 19.48C205.445 18.6133 205.205 17.6133 205.205 16.48C205.205 15.36 205.452 14.3667 205.945 13.5C206.439 12.6333 207.112 11.9667 207.965 11.5C208.819 11.0333 209.772 10.8 210.825 10.8C211.879 10.8 212.832 11.0333 213.685 11.5C214.539 11.9667 215.212 12.6333 215.705 13.5C216.199 14.3667 216.445 15.36 216.445 16.48C216.445 17.6 216.192 18.5933 215.685 19.46C215.179 20.3267 214.485 21 213.605 21.48C212.739 21.9467 211.779 22.18 210.725 22.18ZM210.725 20.2C211.312 20.2 211.859 20.06 212.365 19.78C212.885 19.5 213.305 19.08 213.625 18.52C213.945 17.96 214.105 17.28 214.105 16.48C214.105 15.68 213.952 15.0067 213.645 14.46C213.339 13.9 212.932 13.48 212.425 13.2C211.919 12.92 211.372 12.78 210.785 12.78C210.199 12.78 209.652 12.92 209.145 13.2C208.652 13.48 208.259 13.9 207.965 14.46C207.672 15.0067 207.525 15.68 207.525 16.48C207.525 17.6667 207.825 18.5867 208.425 19.24C209.039 19.88 209.805 20.2 210.725 20.2ZM223.539 10.8C224.393 10.8 225.146 10.9733 225.799 11.32C226.466 11.6533 226.986 12.0733 227.359 12.58V10.98H229.659V22.18C229.659 23.1933 229.446 24.0933 229.019 24.88C228.593 25.68 227.973 26.3067 227.159 26.76C226.359 27.2133 225.399 27.44 224.279 27.44C222.786 27.44 221.546 27.0867 220.559 26.38C219.573 25.6867 219.013 24.74 218.879 23.54H221.139C221.313 24.1133 221.679 24.5733 222.239 24.92C222.813 25.28 223.493 25.46 224.279 25.46C225.199 25.46 225.939 25.18 226.499 24.62C227.073 24.06 227.359 23.2467 227.359 22.18V20.34C226.973 20.86 226.446 21.3 225.779 21.66C225.126 22.0067 224.379 22.18 223.539 22.18C222.579 22.18 221.699 21.94 220.899 21.46C220.113 20.9667 219.486 20.2867 219.019 19.42C218.566 18.54 218.339 17.5467 218.339 16.44C218.339 15.3333 218.566 14.3533 219.019 13.5C219.486 12.6467 220.113 11.9867 220.899 11.52C221.699 11.04 222.579 10.8 223.539 10.8ZM227.359 16.48C227.359 15.72 227.199 15.06 226.879 14.5C226.573 13.94 226.166 13.5133 225.659 13.22C225.153 12.9267 224.606 12.78 224.019 12.78C223.433 12.78 222.886 12.9267 222.379 13.22C221.873 13.5 221.459 13.92 221.139 14.48C220.833 15.0267 220.679 15.68 220.679 16.44C220.679 17.2 220.833 17.8667 221.139 18.44C221.459 19.0133 221.873 19.4533 222.379 19.76C222.899 20.0533 223.446 20.2 224.019 20.2C224.606 20.2 225.153 20.0533 225.659 19.76C226.166 19.4667 226.573 19.04 226.879 18.48C227.199 17.9067 227.359 17.24 227.359 16.48ZM235.334 7.2V22H233.054V7.2H235.334ZM248.827 16.22C248.827 16.6333 248.801 17.0067 248.747 17.34H240.327C240.394 18.22 240.721 18.9267 241.307 19.46C241.894 19.9933 242.614 20.26 243.467 20.26C244.694 20.26 245.561 19.7467 246.067 18.72H248.527C248.194 19.7333 247.587 20.5667 246.707 21.22C245.841 21.86 244.761 22.18 243.467 22.18C242.414 22.18 241.467 21.9467 240.627 21.48C239.801 21 239.147 20.3333 238.667 19.48C238.201 18.6133 237.967 17.6133 237.967 16.48C237.967 15.3467 238.194 14.3533 238.647 13.5C239.114 12.6333 239.761 11.9667 240.587 11.5C241.427 11.0333 242.387 10.8 243.467 10.8C244.507 10.8 245.434 11.0267 246.247 11.48C247.061 11.9333 247.694 12.5733 248.147 13.4C248.601 14.2133 248.827 15.1533 248.827 16.22ZM246.447 15.5C246.434 14.66 246.134 13.9867 245.547 13.48C244.961 12.9733 244.234 12.72 243.367 12.72C242.581 12.72 241.907 12.9733 241.347 13.48C240.787 13.9733 240.454 14.6467 240.347 15.5H246.447Z" fill="#FC0B0D"/>
<path d="M23.8281 15.3926C23.8281 22.3018 19.0967 27.2188 12.1094 27.2188C5.41016 27.2188 0 21.8086 0 15.1094C0 8.41016 5.41016 3 12.1094 3C15.3711 3 18.1152 4.19629 20.2295 6.16895L16.9336 9.33789C12.6221 5.17773 4.60449 8.30273 4.60449 15.1094C4.60449 19.333 7.97852 22.7559 12.1094 22.7559C16.9043 22.7559 18.7012 19.3184 18.9844 17.5361H12.1094V13.3711H23.6377C23.75 13.9912 23.8281 14.5869 23.8281 15.3926Z" fill="#FC0B0D"/>
</svg>
